<?xml version="1.0" encoding="UTF-8" standalone="no"?>
<svg xmlns:rdf="http://www.w3.org/1999/02/22-rdf-syntax-ns#" xmlns="http://www.w3.org/2000/svg" height="1613pt" width="1900pt" version="1.1" xmlns:cc="http://creativecommons.org/ns#" xmlns:dc="http://purl.org/dc/elements/1.1/" viewBox="0 0 1900 1613">
<g>
<path d="m1293.7 678.91c-12.679 1.0384-26.761-2.5313-38.02 5.0368-34.405 17.018-69.418 32.9-102.74 52.022 96.772-0.62181 193.62 1.373 290.34-1.0117 4.1656-1.7906-0.1195-5.877-2.8711-6.3848-33.69-15.712-66.167-34.203-100.02-49.432-15.564-0.0909-31.127-0.27595-46.691-0.23046zm40.873 9.9492c3.0348 3.0671-2.9064 5.6138-0.066-0.006l0.066 0.006zm-564.44 201.13c-53.682 0.0172-107.36 0.0446-161.05 0.0762-0.2193 143.61-0.108 287.21-0.055 430.82 121.94 0.2266 243.89 0.1126 365.83 0.055 0.2196-143.61 0.1049-287.21 0.055-430.82-68.26-0.1298-136.52-0.13856-204.78-0.13086zm-97.148 31.975c11.307 0.0144 22.615 0.0233 33.922 0.0957 0.085 57.965 0.1374 115.93-0.016 173.9-22.617 0.085-45.235 0.1065-67.852-0.014-0.09-57.965-0.138-115.93 0.016-173.89 11.31-0.0459 22.62-0.0701 33.93-0.084zm174.01 1.0117c31.641-0.006 63.281 0.027 94.922 0.125 0.067 57.949 0.1356 115.9-0.025 173.85-63.288 0.054-126.58 0.1589-189.86-0.043-0.068-57.949-0.1375-115.9 0.025-173.85 31.647-0.0347 63.294-0.0614 94.941-0.082z" fill="#f00"/>
<path d="m501.42 1372.2c-7.22 1.0378-14.731-0.5213-21.982 1.2412-13.073 2.0716-25.49 7.1622-36.971 13.64 2.0559 1.8213-2.5717 1.3796-3.4199 3.0664-21.779 12.818-36.095 35.648-43.668 59.28-7.7754 27.808-4.2368 59.237 11.743 83.57 8.1453 15.64 21.079 28.757 36.766 36.75 9.6378 7.148 21.587 10.879 33.238 13.289 28.799 4.9042 60.041-0.3405 83.629-18.268 26.748-19.261 43.761-51.295 43.932-84.351 0.65616-20.02-4.9029-40.174-16.041-56.832-7.8853-16.46-22.248-29.097-38.234-37.248-7.0353-5.4753-15.947-8.2607-24.387-10.941-8.0009-2.196-16.307-3.2971-24.605-3.1961zm267.04 0.3926c-6.654-0.7637-13.046 2.2873-19.639 2.7793-11.288 2.2271-22.332 6.6104-31.502 13.52-4.9013 0.5021-8.0462 4.9795-12.182 7.2578-10.623 7.8782-18.431 18.835-25.281 29.881-7.7929 12.673-12.296 27.428-13.855 42.23-2.2525 23.14 2.6151 47.242 15.68 66.685 9.8634 19.878 29.216 32.998 48.568 42.563 17.397 7.9681 37.004 9.3467 55.822 7.6328 30.935-4.0924 59.994-21.93 76.215-48.84 18.031-29.325 22.547-68.234 7.166-99.633-2.2335-5.5735-7.4296-9.5758-8.1367-15.613-3.5409-6.892-9.6595-12.096-14.621-17.952-6.4384-6.7822-14.352-12.05-22.688-16.074-13.764-9.6592-31.022-13.266-47.563-14.442-2.5659-0.034-5.8773-0.5259-7.9841 0zm620.56 23.17c-39.897-0.4581-77.417 27.988-89.142 65.893-12.122 37.289 2.3402 81.226 34.355 103.91 31.072 23.189 76.647 24.305 108.37 1.7735 31.738-20.993 47.729-62.49 38.506-99.362-9.1867-41.745-49.57-72.788-92.09-72.21zm-226.8 0.1504c-41.137-0.5052-79.804 29.893-89.962 69.601-8.9102 32.799 1.5998 69.854 26.642 92.901 23.041 22.168 57.84 30.73 88.572 21.962 30.592-7.8869 56.419-32.105 65.311-62.56 11.797-37.798-2.5247-82.674-35.758-104.89-15.93-11.131-35.349-17.283-54.805-17.01zm-665.92 44.359c7.1647 2.2079 15.577 2.6122 21.686 6.9082 3.9044 6.2988 13.049 8.7296 13.526 17.135 2.9108 7.6708 5.0937 16.084 1.3665 23.936-1.1481 6.8751-4.6275 13.057-10.292 17.186-6.074 7.5545-15.998 9.2334-25.001 10.546-6.6305 0.064-12.823-2.9987-19.168-4.5859-5.8141-3.5907-8.8456-10.918-15.172-13.856-0.4728-8.8701-6.5483-17.41-2.4766-26.188 1.3528-7.5837 4.2527-14.825 10.521-19.701 5.4878-6.0323 13.153-8.9281 20.975-10.312 1.3296-0.3865 2.6379-0.9861 4.0352-1.0683zm272.75 1.4668c7.5303-0.4127 14.422 3.4357 21.867 3.7597 3.5128 7.8038 13.486 10.858 14.813 20.017 1.4684 6.348 5.0725 12.81 2.049 19.16-1.5324 7.4443-3.6011 15.077-9.9782 19.907-2.9463 2.361-5.114 6.9731-8.0378 8.4451-5.6507-0.5121-10.49 3.7915-16.182 3.8575-7.5943 0.3863-14.688-3.1082-21.885-4.959-4.8939-4.636-9.6581-9.6978-14.207-14.76-1.1461-7.0065-4.9662-13.864-4.0293-20.934 2.7934-8.0459 3.6791-17.622 11.361-22.838 4.1523-4.9463 9.3162-9.3743 16.07-9.674 2.6143-0.4911 5.9173-1.9375 8.1582-1.9822zm621.76 15.982c21.264-0.3566 38.323 24.169 29.719 43.9-6.6323 17.762-30.314 26.911-46.596 16.352-16.08-8.905-21.456-33.008-9.1855-47.402 6.1002-7.9473 15.899-13.334 26.062-12.85zm-226.14 0.022c20.263-0.045 36.769 22.119 30.129 41.562-5.1955 17.734-26.641 28.81-43.686 20.52-16.385-7.0704-25.277-28.316-16.209-44.357 5.6569-10.747 17.507-18.206 29.766-17.725z" fill="#f60"/>
<path d="m1163.9 733.77c30.392 86.437 62.119 172.4 92.975 258.67 28.138 0.74511 56.451-0.69733 84.479 0.73828 6.3366 1.5186 9.6151-5.6007 10.629-10.624 30.09-83.708 60.395-167.35 89.947-251.25-92.991 0.0198-185.98 0.40019-278.97-0.21875 0.3144 0.89388 0.6289 1.7878 0.9433 2.6816zm236.34 24.605c6.7614 1.4668 5.3939 9.9914 2.59 14.416-24.92 67.405-48.888 135.26-73.912 202.56-3.2569 4.2303-13.872 1.7266-10.523-4.4862 24.306-69.483 49.89-138.57 75.09-207.71 1.3083-2.8334 3.3023-5.0827 6.7559-4.7812zm-645.74 108.01c-52.545 0.0296-105.09 0.0567-157.63 0.0879-1.0079 8.3069-0.49605 16.686-0.26367 25.021 139.26 0.20193 278.52 0.0867 417.79 0.0625 3.1106-7.9973 1.6461-16.744 0.5058-24.973-86.797-0.22653-173.59-0.23757-260.39-0.19922zm-150.85 85.191c-24.473-0.79521-45.824 16.741-56.416 37.768-22.244 40.142-21.945 87.852-39.747 129.59-11.999 26.368-38.089 42.278-61.496 57.455-28.056 16.903-55.183 38.386-69.355 68.734-11.388 23.058-16.593 49.025-15.533 74.69 81.298 1.439 162.61 0.9879 243.92 0.2246 1.4935-122.86 0.0542-245.72 0.75586-368.59-0.70898 0.0417-1.418 0.0833-2.127 0.125zm-13.051 21.748c7.1758 0.76786 7.7922 12.758 0.54297 14.166-17.545 11.852-23.299 33.959-27.761 53.421-8.3953 41.508-9.3943 86.088-32.597 122.69-16.205 27.11-45.782 41.403-71.509 57.985-25.285 15.556-48.523 37.736-56.732 67.114-2.1792 5.2552-1.5931 11.558-4.3408 16.414-4.8137 4.4912-14.818-0.5115-11.955-7.2774 4.7502-33.995 26.982-63.215 55.459-81.511 24.127-16.791 52.438-29.262 71.623-52.331 22.686-29.693 26.507-68.276 32.162-103.98 4.3133-25.713 9.1642-53.194 26.007-73.83 5.0716-5.7829 11.448-11.187 19.1-12.859zm541 33.076c-51.683 0.019-103.37 0.039-155.05 0.057-0.22134 105.02-0.13204 210.04-0.041 315.06 204.34 0.1502 408.67 0.093 613.01 0.025 0.2218-105.02 0.1306-210.04 0.043-315.06-152.65-0.1131-305.31-0.1116-457.96-0.08zm145.17 25.131c91.427 0.1789 182.89-0.1509 274.29 0.4551 11.691 2.5122 10.128 24.189-2.7461 22.803-65.554 0.8507-131.29 0.4437-196.91 0.6615-116.01-0.058-232.06 0.1615-348.04-0.4623-11.324-2.4508-10.578-23.53 1.9978-22.774 51.599-0.8385 103.42-0.3762 155.1-0.6371 38.77-0.041 77.54-0.049 116.31-0.046zm343.79 27.801c-10 0.04-20 0.09-30 0.1426-0.2337 66.653-0.1272 133.31-0.057 199.96 20.004 0.3863 40.012 0.1629 60.018 0.086 0.2369-66.653 0.1182-133.31 0.057-199.96-10.005-0.1768-20.011-0.2546-30.018-0.2285zm6.3535 23.1c4.4275 0.1707 8.9148-0.3412 13.289 0.5527 0.3414 7.7357 0.9005 15.503 0.1797 23.234-13.564 0.4838-27.258 0.1885-40.873 0.127-0.7933-7.8643-1.4003-15.847-0.1993-23.703 9.202 0.1856 18.404-0.3051 27.604-0.2109zm-816.57 243.96c-168.53 0.023-337.07 0.056-505.6 0.082-0.78382 11.647-0.3195 23.325-0.19335 34.984 446.93 0.2761 893.86 0.1441 1340.8 0.074 0.7485-11.649 0.2788-23.326 0.1934-34.986-278.4-0.1593-556.8-0.19-835.2-0.1543zm-312.69 38.76c-44.279-0.2563-87.02 28.088-103.98 69-14.82 33.477-11.518 73.896 8.1482 104.73 22.227 36.834 67.073 58.785 109.8 52.631 39.237-4.8148 75.836-30.674 90.876-67.627 17.139-38.812 9.9869-86.949-18.074-118.86-21.264-25.116-53.812-40.293-86.773-39.874zm272.58 0.7305c-32.775 0.4061-64.788 15.897-85.397 41.391-20.834 24.765-30.681 58.595-24.878 90.593 7.5129 50.54 53.066 92.592 104.26 95.15 44.479 3.3696 89.739-21.926 109.3-62.183 19.732-38.181 15.363-87.603-11.921-121.04-21.743-27.338-56.171-44.944-91.371-43.913zm867.13 0.4043c-21.485 0.4039-42.981-0.352-64.461 0.4414-19.563 65.218-38.42 130.66-55.15 196.67 118.26 0.6413 236.53-0.3032 354.79 0.5098-11.722-19.315-32.079-30.533-48.074-45.779-59.375-50.044-118.09-100.94-177.72-150.63-2.8668-1.6691-6.2061-1.3467-9.3789-1.2168zm-13.19 11.144c9.1268-0.2577 18.174 3.6854 23.718 11 57.767 52.505 116.31 104.25 173.83 156.96 1.1194 3.5982-4.2064 6.8893-6.1891 3.0881-60.623-53.379-119.84-108.32-180.4-161.77-14.435-3.4637-29.749 0.5867-43.916-2.9433-2.0166-3.2144 1.4205-7.5397 4.9606-5.5513 9.3417 0.6039 18.656-0.8647 27.996-0.7886zm-1119.6 4.086c12.207-0.01 24.522 3.6716 35.574 9.166-8.1877 15.1-17.041 30.158-25.887 44.621-3.4006-1.102-6.9764-1.8393-10.4-2.6524-0.36402-17.038-0.47601-34.085-0.0625-51.123l0.74609-0.012h0.0293zm-13.074 0.1035c-0.4746 16.738 0.40405 33.6-0.16211 50.394-3.8724 1.0175-7.9352 2.2658-11.727 2.959-7.8889-14.922-17.839-28.535-24.777-43.953 11.311-5.4933 24.021-9.3175 36.666-9.4004zm287.82 0.4004c12.179 1.046 23.816 3.9209 34.713 9.498-8.5097 14.759-16.389 30.7-25.91 44.4-3.4853-0.5311-6.7484-1.9603-10.195-2.6601-0.70235-17.059-0.25557-34.242-0.23828-51.358l0.99734 0.073 0.63352 0.046zm-13.924 4.4609c0.17623 15.498 0.0489 30.996 0.0371 46.494-3.9737 0.1818-9.8143 4.8003-12.416 1.2294-8.5172-13.663-16.594-27.628-24.118-41.888 11.027-6.5822 23.989-8.5554 36.426-10.4 0.0234 1.5214 0.0469 3.0429 0.0703 4.5644zm-213.97 11.002c10.99 6.2108 20.496 15.186 26.789 26.059-14.488 9.1549-29.598 17.466-44.584 25.631-2.6444-2.9232-9.3364-5.0779-7.8047-9.6797 9.1775-13.632 16.171-28.513 25-42.342l0.59961 0.3321zm273.61 0.4804c11.243 6.2448 20.914 16.422 27.441 26.752-14.946 8.2171-29.607 17.099-44.568 25.434-2.5344-3.231-9.159-5.2136-8.0131-9.8925 8.7565-13.872 16.529-28.369 24.796-42.477l0.34375 0.1836zm-381.18 0.3184c9.6692 13.603 16.821 28.748 25.42 43.008-2.9723 2.5206-5.9312 5.0905-8.4727 8.0567-14.819-7.718-28.874-16.755-43.477-24.896 6.6862-10.431 15.566-20.713 26.529-26.168zm273.64 0.9199c10.505 13.062 16.992 29.014 25.469 43.143-2.7763 2.5086-5.4151 5.1679-7.9238 7.9434-14.893-7.7381-28.869-17.099-43.695-24.957 6.6039-10.419 15.054-20.23 26.15-26.129zm-132.87 35.684c6.5557 11.014 9.8894 23.73 10.701 36.463-17.306-0.4432-35.419 0.9098-52.229-0.3965-0.97552-3.7387-2.0753-7.4463-3.3398-11.098 15.025-8.1856 29.63-17.108 44.459-25.639l0.4082 0.6699zm-172.28 1c14.376 7.374 28.026 16.118 42.215 23.978-1.2641 3.6818-2.4461 7.4058-3.1973 11.23-16.757 0.7412-33.652 0.2471-50.473 0.2344 0.76125-12.545 4.2264-25.129 10.189-36.08l0.89332 0.4494 0.37231 0.1873zm446.04-0.3418c6.7964 11.137 10.265 23.743 11.057 36.807-17.422-0.1879-34.845 0.3789-52.266-0.024-0.9963-3.9021-2.0165-7.8047-3.3516-11.607 14.757-8.3894 29.854-17.63 44.561-25.176zm-170.79 1.7949c13.808 7.4644 28.103 15.367 40.904 23.811-1.1034 3.7383-2.118 7.5075-3.4375 11.178-16.727 0.1693-33.455 0.1593-50.182 0.024 0.72829-12.643 4.4513-24.934 9.9414-36.455 0.92448 0.4811 1.849 0.9622 2.7734 1.4433zm476.15 16.475c-16.029-0.012-31.193 11.395-34.898 27.084-5.6306 18.935 7.3623 41.387 27.199 44.467 16.796 3.5553 35.9-5.5357 41.566-22.23 7.3656-17.194-2.2341-38.001-18.65-45.852-4.7059-2.3319-9.9554-3.5987-15.217-3.4688zm225.1 0.1934c-22.282-0.042-40.172 24.505-33.268 45.734 5.1988 20.813 31.128 32.95 50.348 23.098 19.467-8.8284 27.221-36.339 14.072-53.582-6.9283-9.9059-19.135-15.661-31.152-15.25zm-833.87 29.52c13.461-0.019 26.922 0.2894 40.383 0.061-0.75591 13.112-3.9317 26.191-9.7363 38.164-14.882-9.1684-30.391-17.201-45.191-26.488 1.1799-3.8327 2.2694-7.6962 3.1348-11.613 3.8026-0.089 7.6066-0.1091 11.41-0.1231zm-122.49 0.014c5.9746 0.2945 12.798-0.4658 18.287 0.4883 0.86398 3.873 2.2492 7.6169 2.9531 11.527-14.55 8.0096-28.236 17.575-43.281 24.682-6.5194-11.091-8.6365-23.92-9.5274-36.607 10.523-0.039 21.046-0.091 31.568-0.09zm400.09 0.9883c12.26 0.1189 24.521 0.098 36.781 0.1699-0.84965 12.698-4.3143 25.793-9.7715 37.279-15.198-8.3857-31.163-16.821-45.242-26.246 0.9221-3.6516 2.0789-7.3492 3.1055-11.045 5.041-0.1351 10.084-0.1612 15.127-0.1582zm-126.1 0.014c6.1407 0.027 12.282 0.04 18.422 0.125 0.45646 3.9044 3.3935 8.8597 2.0079 12.026-13.834 8.7017-28.063 16.776-42.564 24.404-6.4279-11.128-8.4271-23.829-9.3887-36.461 10.508-0.044 21.016-0.099 31.523-0.094zm-246.23 22.012c3.2856 2.1814 5.3526 5.6378 8.0703 8.416-7.7439 14.932-16.865 29.09-24.947 43.834-11.196-6.4685-20.198-16.32-26.619-27.469 13.966-9.0132 28.732-17.305 43.496-24.781zm74.99 0.3359c15.601 6.8757 28.842 18.142 44.65 24.607-7.2886 11.319-16.892 20.92-28.143 28.358-8.1826-15.146-18.094-29.938-25.738-44.979 3.3154-2.1744 5.9112-7.2156 9.2305-7.9863zm275.09 1.2188c14.645 7.8401 28.598 16.955 43.385 24.592-7.1727 11.388-16.729 21.427-28.33 28.35-7.1088-15.877-18.113-29.547-25.105-45.428 2.4964-3.0078 5.2909-5.7468 7.9141-8.6406 0.71224 0.3757 1.4245 0.7513 2.1367 1.127zm-76.24-1.0391c2.9464 2.7938 5.4453 5.9039 8.3535 8.7852-7.7533 14.9-16.886 29.022-24.959 43.742-10.659-6.9754-20.807-15.738-26.836-27.242 13.805-9.486 29.105-16.949 43.441-25.285zm-218.44 14.877c9.1556 14.202 16.712 29.471 25.697 43.894-11.664 5.7912-24.568 9.1988-37.609 9.4785-0.0195-16.914-0.63192-34.425 0.24805-50.969 3.8232-0.3234 8.5123-3.3456 11.664-2.4043zm-35.312-0.3516c3.5549 0.9241 7.1643 2.0268 10.795 2.9316 0.66441 16.886 0.36713 33.882 0.13671 50.816-13.114-0.2886-25.642-3.9674-37.424-10.055 7.5913-15.106 16.823-29.331 25.301-43.992l0.96995 0.2433 0.22145 0.055zm273.25 0.5508c3.9602 0.909 7.7771 2.1886 11.738 3.2851 0.13435 16.964 0.33774 33.931-0.0391 50.893-13.146-0.2825-25.885-4.1638-37.338-10.123 7.4162-15.263 16.881-29.391 25.209-44.148l0.42969 0.094zm34.377 0.6484c12.52 12.341 17.123 29.98 27.311 43.971-11.758 5.6375-24.801 9.4834-38.043 9.7793 0.94086-17.023-0.007-34.182 0.46875-51.146 3.4566-0.483 7.0561-2.1486 10.264-2.6035z" fill="#008000"/>
<path d="m727.24 0c-45.3 6.8375-81.92 43.8-90.85 88.275-64.88-0.037-126.08 48.145-140.11 111.68-13.33 51.46 4.94 109.02 44.88 143.88 44.73 40.61 114.58 47.52 167.31 18.88 23.74 21.73 58.23 30.73 88.81 19.24 40.46 39.1 109.7 42.56 152.47 5.29 47.77-37.07 53.85-110.38 19.45-158.4 4.05-39.35-4.79-81.52-30.8-112.24-22.31-26.922-59.05-35.66-92.58-35.772-10.21-41.8-46.6-74.638-89.18-80.838h-29.4zm14.84 25.287c43.28-0.303 83.12 39.174 80.57 83.123 42.06-7.32 88.18 12.09 108.69 50.25 14.12 23.71 16.56 53.08 10.21 79.55 16.05 17.32 25.05 40.7 24.75 64.32-0.12 43.65-36.03 83.74-79.58 88.11-31.22 4.67-63.81-9.62-82.87-34.48-2.93-4.96-8.02 1.49-11.45 2.38-27.45 15.82-65.31 1.51-77.65-27.1-32.53 23.08-75.84 35.15-114.66 20.95-61.98-17.54-100.43-89.85-80.09-151.13 16.12-58.59 79.49-96.25 138.88-85.36-4.94-44.562 31.51-88.712 76.8-90.275 2.14-0.212 4.27-0.323 6.4-0.338zm891.92 113.88c-2.4-0.01-4.8 0.04-7.2 0.17-35.5 1.51-70.7 16.27-95.2 42.23-1.4 3.24-4.2 1.54-6.1 0.44-40.3-25.54-90.2-36.61-137.3-27.57-74.1 11.74-137.8 70.23-155.8 142.97-15 55.55-2.9 117.63 31.4 163.77 32.5 45.63 85.8 74.78 141.5 79.58 6.9 42.54 41.2 77.4 82.7 87.52 9.9 40.15 34.7 76.99 70.8 97.88 57.8 36.86 139.6 26.43 187.2-22.66 31-30.39 46.9-74.11 45.6-117.24 34.9-40.46 56.2-95.02 49.9-148.94-4.9-45.98-40.9-82.13-76-107.37 19-51.81 4.9-113.45-35.3-151.42-25.9-23.98-60.8-39.18-96.2-39.36zm-1451 2.93c-15.14-0.18-30.3 4.68-43.31 15.95-30.97-27.26-84.791-17.55-102 20.79-9.166 17.87-7.814 39.07-0.714 57.38-20.113 15.35-33.288 38.27-36.926 63.28v19.74c5.2875 41.35 40.638 77.59 82.988 79.35 36.972 4.5 71.632-19.23 88.982-50.7 20.07 4.67 38.48-6.63 51.21-21.1 39.28 6.06 78.78-26.29 79.82-66.26 3.05-32.15-19.95-60.92-48.86-72.14-13.51-27.28-42.3-45.95-71.19-46.29zm-85.546 16.32c16.136 0.06 31.136 9.32 41.276 21.7 30.68-33.82 90.51-19.21 105.75 23.09 32.81 6.84 54.48 46.08 39.26 76.76-10.24 27.32-42.68 39.34-69.41 31.57-6.8 20.93-33.48 30.3-51.92 18.67-8.87 33.45-42.12 58.31-77.01 54.89-42.15-0.4-76.212-42.99-69.737-84.21 2.175-25.7 22.05-46.65 41.625-59.43-24.387-28.35-6.338-77.97 31.112-82.1 3.041-0.65 6.067-0.96 9.054-0.94zm1531.6 14.12c1.1-0.02 2.1-0.02 3.2 0 40.6 0.72 80 26.36 96.5 63.7 17.2 34.54 11.9 76.81-8.6 108.73 46.6 20.45 82.1 68.27 82.5 120.24 3.3 41.65-17.1 82.23-47.4 109.88 5.8 41.37-8.4 85.78-40.9 112.98-35.8 31.15-90.6 39.03-132.8 16.69-40.5-18.59-64.8-61.09-68.5-104.37-47.3 2.11-87.8-43.12-79.4-90.19-78.5 7.92-156.9-47.8-173.8-124.95-17.7-69.17 16.9-147.19 80.1-180.31 61-34.85 142.7-22.94 192.5 26.22 16.6-32.6 50.7-55.1 87.2-58.02 3.1-0.36 6.3-0.56 9.4-0.6zm2.1 637.22c-16.3-0.02-32.7 0.3-49 0.96-45.8 18.05-87 47.39-131.9 68.14-19.1 6.19-27.2 29.36-20.1 47.26 35.3 98.08 71.5 195.88 105.7 294.38-94-1.3-188 0-281.9-0.6-0.5-23.5 0.1-47-0.4-70.5 13.2-0.5 28.2 1.7 38.6-8.6 16.7-13.6 11-36.9 11.6-55.5 1.3-20.8-19.7-38.4-40.1-35.3-172.6 0.4-345.16-0.8-517.69 0.6-34.5 7.5-32.32 50.7-25.29 77.1 7.68 8.7 15.38 30.2-0.5 33.8-28.36 12.2-47.72 38-61.38 64.7-23 46.1-31.58 97.5-46.13 146.4-20.38 46.3-73.66 61.8-109.68 92.8-44.59 32.3-71.37 84.4-78.64 138.3-24.95-1.8-63.67-3.9-70.73 27.9-0.65 30.5-12.91 85.6 28.85 93.7 37.81 1.9 75.75 0.9 113.6 0.5-3.05-0.2-6.13-0.3-9.21-0.4 3.09 0.1 6.16 0.2 9.21 0.4-40.59 46.4-56.12 117.8-32.3 176.8 22.72 62.5 84.45 108.4 151.03 111.5 78.75 7.1 156.72-48.4 177.41-124.4 0.88-7.8 11.71-5.1 10.41 2.7 19.82 71.3 89.51 122.3 162.85 123.8h5.9c76.69-1.1 146.69-57.1 165.49-131.1 59 0.1 118.2-0.8 177.2 0.5 11 51 50.7 94.8 101 109.4 72.1 24 158.8-20.1 180.2-93.4 0.6-0.9 2-10.6 4.9-6.5 15 56.6 67.6 99.8 125.6 105.7 62.1 6.9 124.1-30.7 149.2-87.2-10.1 25.2-7.2 62.8 26.1 65.5 147.7 1.7 295.5 1.2 443.2 0.2 15.4-1.9 27.4-15 30.8-29.8v-11.4c-2-9.3-7.7-17.3-14.7-23.5-89.3-77.5-178.3-155.3-267.7-232.7-5.8-19.6 5.7-44-7.7-61.8-12.1-24.6-48.3-10.4-62.4-20.1 0.4-0.1 0.8-0.3 1.2-0.4-0.4 0.1-0.8 0.3-1.2 0.4 13.8 0.1 27.7 0.5 41.5-0.7-0.7 0-1.4 0.1-2.2 0.1 0.8 0 1.5-0.1 2.2-0.1 19.8-0.6 36.5-19.6 33.5-39.4-0.8-82.7 1.6-165.6-1.1-248.1-8.4-33-48.4-25.4-73.8-25.9 3.4-23.4 2-59.4-27.4-65.1-89.4-1.6-179-0.9-268.5-0.3 29.4-85.7 61.3-170.5 91.6-255.93 4.5-12.3 8.2-25.08 15.4-36.19 8.2-15.69 1.9-37.57-13.8-46-41.5-22.62-83.1-44.94-124.5-67.67-4.7-2.36-10.1-3.33-15.3-3.81-16.3-0.74-32.6-1.11-49-1.14zm-2.2 43.87c15.5 0.03 31.1 0.21 46.6 0.3 40.5 19.53 80.3 40.88 120.9 60.37-111.3 1.65-224.2 0.22-336 0.7 38.2-20.89 81.6-40.48 121.8-60.75 15.5-0.53 31.1-0.65 46.7-0.62zm-168.8 64.77c112 0.73 224 0.26 336 0.24-36.1 102.86-73.7 205.46-110.2 308.26-2.4 3.7-2.3 13.1-9.9 9.4-33.9-0.3-67.8 0.3-101.7-0.2-37.9-106-76.9-211.6-114.2-317.7zm-452.7 169.1c85.7-0.1 171.5 0 257.2 0.2 1 7.4 2.1 14.9 0 22.2-171.5 0.1-343.03 0.2-514.53 0-0.2-7.5-0.59-14.9 0.08-22.3 85.74 0 171.49-0.1 257.25-0.1zm-17.36 30c74.56 0 149.06 0 223.66 0.1 0.1 176.2 0.2 352.4-0.1 528.6-149.1 0.1-298.2 0.2-447.28-0.1-0.07-176.2-0.21-352.4 0.07-528.5 74.54-0.1 149.09-0.1 223.65-0.1zm-148.78 30c-15.8 0-31.6 0-47.4 0.1-0.21 75.7-0.16 151.5-0.02 227.3 31.59 0.2 63.2 0.2 94.8 0 0.21-75.7 0.15-151.5 0.02-227.3-15.8-0.1-31.6-0.2-47.4-0.1zm217.54 1.2c-41.2 0-82.47 0.1-123.69 0.1-0.22 75.8-0.14 151.6-0.04 227.3 82.43 0.3 164.83 0.2 247.33 0.1 0.2-75.8 0.1-151.6 0-227.3-41.2-0.2-82.4-0.2-123.6-0.2zm-306.15 45.4c-0.84 150.4 0.93 301.5-0.87 451.5-98.22 0.9-198.18 1.4-296.04-0.3-1.09-44 13.96-90.9 44.21-124.1 39.6-45.1 105.46-61.4 136.12-115.1 22.97-49.4 23.13-106.5 46.4-156.1 11.23-26.9 33.56-53 64.37-55.6l5.81-0.3zm851.15 68.4c126.2 0 252.4 0 378.6 0.1 0.1 128.3 0.2 256.6 0 384.8-252.5 0.1-504.9 0.2-757.3 0-0.1-128.3-0.2-256.6 0-384.8 126.2-0.1 252.5-0.1 378.7-0.1zm421.9 66.2c11-0.1 22 0 33 0.2 0.1 80.3 0.2 160.7-0.1 241-22 0.1-44 0.4-66 0-0.1-80.4-0.3-160.8 0-241.1 11 0 22-0.1 33.1-0.1zm8.5 269.5c1.1-0.1 2.2 0 3.3 0-1.1 0-2.2-0.1-3.3 0zc-1 0-2 0-2.9 0.1 0.9-0.1 1.9-0.1 2.9-0.1zm4.4 0c0.9 0.1 1.7 0.1 2.6 0.2-0.9-0.1-1.7-0.1-2.6-0.2zm3.4 0.2c3.8 0.3 7.6 0.6 11.4 0.8-3.8-0.2-7.6-0.5-11.4-0.8zm-12.7 0c-0.2 0-0.3 0.1-0.4 0.1 0.1 0 0.2-0.1 0.4-0.1zm-2.3 0.3c-0.1 0.1-0.2 0.1-0.4 0.1 0.2 0 0.3 0 0.4-0.1zm-0.8 0.2c-0.3 0.1-0.6 0.1-0.9 0.2 0.3-0.1 0.6-0.1 0.9-0.2zm-1.3 0.3c-0.3 0.1-0.6 0.2-0.9 0.3 0.3-0.1 0.6-0.2 0.9-0.3zm31.8 0.2h0.8-0.8zm4.5 0h-1.2 1.2zm-842.4 63.1c277.9 0 555.8 0 833.6 0.2 0.1 11.5 0.5 23.1-0.1 34.7-555.7 0.1-1111.5 0.3-1667.2-0.1-0.16-11.6-0.57-23.2 0.05-34.7 277.88-0.1 555.76-0.1 833.65-0.1zm-594.78 48.4c36.77 0.1 73.13 16.2 98.26 43.1 39.17 39.9 49.28 104.8 23.93 154.7-30.13 66.3-117.71 97.3-182.5 63.8-58.93-26.2-92.26-98.1-73.64-159.9 13.49-53.8 63.03-95.8 118.19-100.7 5.24-0.7 10.5-1 15.76-1zm343.65 0.9c62.33 0.7 121.23 48.8 132.13 110.8 10.9 49.9-9.7 104.8-50.5 135.4-32.2 25.7-76.44 35-116.34 25.3-56.5-13-101.26-64.8-104.78-122.8-7.8-70.8 49.33-140.4 120.08-147.3 6.48-1 12.96-1.5 19.41-1.4zm1084.3 0.4c5.3 0 8.9 5.1 12.9 8.1 75.5 64 150.7 128.4 226.3 192.3 13.4 12.4 30.9 23.2 40.8 37.7-143-0.9-286 0.2-429.1-0.5 20.1-79.1 43.4-159.8 66.6-237 26.7-0.7 53.4-0.2 80.1-0.2 0.9-0.3 1.7-0.4 2.4-0.4zm-1598.2 12.6c-5.55 0-11.12 0-16.69 0.1 5.57-0.1 11.14-0.1 16.69-0.1zm12.83 0.1c2.82 0 5.63 0.1 8.43 0.1 3.06 0.1 6.1 0.2 9.14 0.3-3.04-0.1-6.08-0.2-9.14-0.3-2.8 0-5.61-0.1-8.43-0.1zm-35.65 0c-4.03 0.1-8.07 0.1-12.1 0.2 4.03-0.1 8.07-0.1 12.1-0.2zm-26.71 0.3c-1.68 0-3.36 0-5.03 0.1 1.68-0.1 3.35-0.1 5.03-0.1zm1332.6 26.5c43.4-0.2 85.8 27.4 102.1 68.1 20.7 46.7 2.7 106.4-40.4 133.8-40.8 29.1-101.7 24.1-137.1-11.3-21.4-19.1-33.2-47.1-34.8-75.4-3.5-54.6 39.7-107.1 94.2-113.8 5.3-0.9 10.6-1.4 16-1.4zm-284.1 0.2c34.1-0.5 68 15.7 88.4 43.1 28.4 35.7 30.5 89.6 5.1 127.5-30.3 49.4-101.7 65.2-150.2 33.9-31.7-19.4-52.7-55.5-52.4-92.8-2.4-53.5 41.3-104.5 94.5-110.5 4.9-0.7 9.7-1.1 14.6-1.2zm284.9 63.3c-1.9 0-3.8 0.2-5.7 0.5-26.7 2.5-47.4 31.3-40.1 57.3 4.2 23.5 28.9 40.1 52.2 36.5 22.7-2.6 41.8-23.9 41-47 1-24.8-21.3-46.6-45.5-47.3-0.7-0.1-1.3-0.1-1.9 0zm-281.9 0h-2c-1.4 0-2.8 0.1-4.2 0.3-23.1 2.3-43 23.4-42.2 47-1.2 28.9 29.1 53.7 57.3 46.3 25.4-4.4 43.3-33.1 35.7-57.9-4.2-20.4-24.2-35.3-44.6-35.7zm0.2 6.6c26.8 0.4 48.8 31.9 35.8 57.4-11.4 29.3-57.1 32.7-71.8 4.5-15.1-22.2-0.6-56.4 25.9-60.6 3.4-1 6.8-1.4 10.1-1.3zm281.2 0.2c16-0.1 31.9 9.2 37.9 24.2 10.6 21.7-3.5 50.7-27.1 55.7-21.7 6.4-46.3-9.4-49.9-31.6-4.8-20.6 9.9-42.8 30.3-47.3 2.9-0.7 5.9-1 8.8-1z" transform="scale(.8)"/>
<path d="m593.66 20.23c-1.7028 0.01192-3.4111 0.1011-5.1235 0.27031-36.23 1.25-65.391 36.57-61.441 72.22-47.51-8.71-98.2 21.419-111.1 68.289-16.27 49.02 14.49 106.87 64.07 120.9 31.06 11.36 65.71 1.7106 91.73-16.759 9.87 22.89 40.16 34.34 62.12 21.68 2.74-0.71 6.8194-5.87 9.1594-1.9 15.25 19.89 41.32 31.32 66.3 27.58 34.84-3.49 63.561-35.569 63.661-70.489 0.24-18.89-6.96-37.6-19.8-51.45 5.08-21.18 3.1297-44.671-8.1703-63.641-16.41-30.53-53.3-46.06-86.95-40.2 2.04-35.161-29.83-66.743-64.46-66.5zm-515.74 106.5c-2.3899-0.0101-4.8109 0.2328-7.2437 0.7578-29.96 3.3-44.399 43-24.889 65.68-15.66 10.22-31.56 26.979-33.3 47.539-5.18 32.98 22.069 67.05 55.789 67.37 27.91 2.74 54.511-17.149 61.611-43.909 14.75 9.3 36.09 1.8094 41.53-14.941 21.39 6.22 47.34-3.4 55.53-25.25 12.18-24.55-5.1594-55.939-31.409-61.409-12.19-33.84-60.05-45.53-84.6-18.47-8.1084-9.9056-20.112-17.313-33.017-17.367zm1227.8 11.302c-3.3636-0.0589-6.7381 0.0953-10.105 0.475-29.14 2.34-56.401 20.34-69.691 46.42-39.85-39.33-105.23-48.86-154.01-20.98-50.61 26.5-78.281 88.91-64.141 144.25 13.59 61.72 76.25 106.3 139.05 99.959-6.71 37.66 25.68 73.84 63.52 72.15 2.98 34.63 22.449 68.63 54.809 83.5 33.81 17.87 77.65 11.57 106.28-13.35 25.99-21.76 37.371-57.289 32.731-90.389 24.21-22.12 40.52-54.58 37.85-87.9-0.29-41.58-28.681-79.831-65.931-96.191 16.41-25.54 20.621-59.359 6.8812-86.989-13.24-29.87-44.73-50.386-77.245-50.956zm27.645 550.15c-1.58 1.35-3.2309 4.6609 1.5391 4.6609 21.65 12.92 43.74 25.169 65.73 37.489 3.81 2.19 6.0803-3.6297 1.8203-4.7797-23-12.31-45.229-27.78-69.089-37.37zm66.259 66.555c-0.9465 0.0243-1.9331 0.21937-2.9406 0.61562-5.21 0.98-6.5888 6.84-8.3688 11.05-24.55 68.05-49.64 135.95-73.8 204.11-3.47 12.25 16.089 14.021 18.959 3.8813 24.6-68.57 49.55-137.03 74.6-205.43 2.8962-6.195-1.8247-14.395-8.45-14.225zm-809.71 214.98c-1.0125 0.0432-2.0784 0.2584-3.1875 0.67656-22.93 9.95-33.001 35.959-38.741 58.559-12.09 46.37-8.4288 99.931-41.869 138.13-29.06 28.52-70.561 41.389-97.011 72.989-14.86 16.89-24.18 38.48-26.9 60.73 0.8 11.42 19.14 13.551 21.22 1.3906 3.52-29.27 23.091-53.759 46.741-70.059 29.27-21.3 66.15-35.25 84.55-68.45 24.84-39.46 23.649-87.71 34.319-131.65 4.69-15.81 10.38-33.521 25.5-42.431 9.9415-4.6128 5.166-20.304-4.6219-19.886zm686.84 58.209c-90.986-0.023-181.97 0.062-272.94 0.4172-17.13 2.49-15.671 29.751 1.5891 30.491 181.63 0.13 363.31 0.5491 544.93-0.2109 16.68-2.29 16.29-28.89-0.6297-30.47-90.975-0.075-181.96-0.2041-272.95-0.2266zm349.22 50.861c-9.8906 0.023-19.859 0.4984-29.672 0.1859-2.2 10.18-1.1403 20.68-0.07 30.95 15.76 0.04 31.58 0.4703 47.35-0.2297 1.42-9.94 0.4109-20.241 0.061-30.191-5.8275-0.5812-11.734-0.7294-17.669-0.7156zm-3.561 295.06c-9.8788 0.011-20.391 1.7588-29.611 0.3938-6.39 0.77-7.83 10.771-2.25 13.591 14.18 2.33 29.05-0.5412 42.92 2.2188 60.99 53.81 120.64 109.23 181.74 162.94 6.89 4.29 14.589-7.2206 7.2094-12.141-57.99-52.4-116.27-104.5-174.2-156.98-6.685-8.31-15.931-10.035-25.809-10.024z" fill="#fefefe"/>
</g>
</svg>
